# xmcd
#
# Track frame offsets:
#	150
#	13416
#	27163
#	42559
#	57306
#	71773
#	87212
#	101405
#	115384
#	129852
#
# Disc length: 1917 seconds
#
# Revision: 0
# Processed by: cddbd v1.5.2PL0 Copyright (c) Steve Scherf et al.
# Submitted via: EasyCDDAExtractor 16.0.6.1
#
DISCID=86077b0a
DTITLE=Συλλογικός δίσκος - Ιστορία ρεμπέτικου και λαϊκού 04-5
DYEAR=2007
DGENRE=Ποικίλη
TTITLE0=Χατζηχρήστος Απόστολος - Η άμαξα μέσ' στην βροχή [Α. Χαζτηχρήστος-Χ. Β
TTITLE0=ασιλειάδης]
TTITLE1=Γεωργακοπούλου Ιωάννα-Χιώτης Μανώλης - Ψιλό γαζί [Μ. Χιώτης]
TTITLE2=Παγιουμτζής Στράτος - Μπήκε ο χειμώνας [Παν. Τούντας-Κ. Κοφινιώτης]
TTITLE3=Βαμβακάρης Μ.-Τσαουσάκης Π.-Τσιτσάνης Β. - Μέσ' στον οντά ενός πασά [Σ
TTITLE3=Περιστέρης-Μ. Μάτσας]
TTITLE4=Παγιουμτζής Στράτος-Τσιτσάνης Βασίλης - Το πρωΐ με τη δροσούλα [Βασ. Τ
TTITLE4=σιτσάνης]
TTITLE5=Παγιουμτζής Στράτος-Καπλάνης Κώστας - Ο αναπτήρας [Στρ. Παγιουμτζής]
TTITLE6=Μοσχονάς Οδυσσέας-Περπινιάδης Στελλάκης - Ο Ζέππος [Γ. Παπαϊωάννου]
TTITLE7=Βαμβακάρης Μάρκος-Εσκενάζυ Ρόζα - Χρόνια στον Πειραιά [Μ. Βαμβακάρης]
TTITLE8=Γεωργακοπούλου Ιωάννα-Περπινιάδης Στ. - Δεν με στεφανώνεσαι [Βασ. Τσιτ
TTITLE8=σάνης]
TTITLE9=Γεωργακοπούλου Ιωάννα-Χιώτης Μανώλης - Ο πασατέμπος [Μ. Χιώτης-Γ. Γιαν
TTITLE9=νακόπουλος]
EXTD=
EXTT0=
EXTT1=
EXTT2=
EXTT3=
EXTT4=
EXTT5=
EXTT6=
EXTT7=
EXTT8=
EXTT9=
PLAYORDER=
